<svg height="512pt" viewBox="0 0 512 512" width="512pt" xmlns="http://www.w3.org/2000/svg" xmlns:xlink="http://www.w3.org/1999/xlink"><linearGradient id="linear0" gradientUnits="userSpaceOnUse" x1="74.9807" x2="439.4667" y1="74.9807" y2="439.4667"><stop offset="0" stop-color="#ff6f61"/><stop offset="1" stop-color="#ff4c3b"/></linearGradient><linearGradient id="lg1"><stop offset="0" stop-color="#bcf7fc"/><stop offset="1" stop-color="#8de5ff"/></linearGradient><linearGradient id="linear1" gradientUnits="userSpaceOnUse" x1="113.567" x2="332.6849" xlink:href="#lg1" y1="256" y2="256"/><linearGradient id="linear2" gradientUnits="userSpaceOnUse" x1="113.5672" x2="332.6848" xlink:href="#lg1" y1="256" y2="256"/><linearGradient id="lg2"><stop offset="0" stop-color="#8160ff"/><stop offset="1" stop-color="#375798"/></linearGradient><linearGradient id="linear3" gradientUnits="userSpaceOnUse" x1="370.5425" x2="370.5425" xlink:href="#lg2" y1="146.7029" y2="392.6948"/><linearGradient id="linear4" gradientUnits="userSpaceOnUse" x1="370.5425" x2="370.5425" xlink:href="#lg2" y1="146.703" y2="392.6949"/><linearGradient id="lg3"><stop offset="0" stop-color="#375798"/><stop offset="1" stop-color="#0e3e4c"/></linearGradient><linearGradient id="linear5" gradientUnits="userSpaceOnUse" x1="181.0636" x2="271.1089" xlink:href="#lg3" y1="194.5852" y2="194.5852"/><linearGradient id="linear6" gradientUnits="userSpaceOnUse" x1="181.0636" x2="271.1093" xlink:href="#lg3" y1="194.5852" y2="194.5852"/><linearGradient id="lg4"><stop offset="0" stop-color="#8160ff"/><stop offset="1" stop-color="#5c5ccc"/></linearGradient><linearGradient id="linear7" gradientUnits="userSpaceOnUse" x1="143.5654" x2="292.542" xlink:href="#lg4" y1="215.8903" y2="215.8903"/><linearGradient id="linear8" gradientUnits="userSpaceOnUse" x1="143.5655" x2="292.5421" xlink:href="#lg4" y1="215.8903" y2="215.8903"/><linearGradient id="lg5"><stop offset="0" stop-color="#ff4c3b"/><stop offset="1" stop-color="#c44e46"/></linearGradient><linearGradient id="linear9" gradientUnits="userSpaceOnUse" x1="152.565" x2="296.753" xlink:href="#lg5" y1="306.1112" y2="306.1112"/><linearGradient id="linear10" gradientUnits="userSpaceOnUse" x1="152.565" x2="296.7528" xlink:href="#lg5" y1="306.1112" y2="306.1112"/><path d="m512 256c0 141.386719-114.613281 256-256 256s-256-114.613281-256-256 114.613281-256 256-256 256 114.613281 256 256zm0 0" fill="url(#linear0)"/><path d="m117 116.863281v278.273438h105.980469l48.917969-139.136719-48.917969-139.136719zm0 0" fill="url(#linear1)"/><path d="m222.980469 116.863281h105.984375v278.273438h-105.984375zm0 0" fill="url(#linear2)"/><path d="m346.085938 225.238281v145.441407c0 13.484374 10.96875 24.457031 24.457031 24.457031 13.484375 0 24.457031-10.972657 24.457031-24.457031v-145.4375zm0 0" fill="url(#linear3)"/><path d="m346.085938 116.863281v32.605469l24.457031 24.457031 24.457031-24.453125v-32.609375zm0 0" fill="#bcf7fc"/><path d="m346.085938 149.472656v75.765625c0 13.507813 10.949218 24.457031 24.457031 24.457031 13.507812 0 24.453125-10.945312 24.457031-24.453124v-75.769532zm0 0" fill="url(#linear4)"/><path d="m271.898438 227.195312-32.613282-65.21875c0 9.003907-7.296875 16.304688-16.304687 16.304688l-16.304688 48.914062zm0 0" fill="url(#linear5)"/><path d="m174.066406 227.195312 32.609375-65.21875c.003907 9.003907 7.300781 16.304688 16.304688 16.304688v48.914062zm0 0" fill="url(#linear6)"/><path d="m272.835938 249.695312-.136719-.265624 17-40.460938-3.914063-3.875c-3.484375-3.445312-5.734375-8.210938-5.734375-12.140625v-43.480469h-40.761719v45.113282c0 9.003906-7.300781 16.304687-16.304687 16.304687l-32.613281 71.417969zm0 0" fill="url(#linear7)"/><path d="m222.980469 210.890625c-9.003907 0-16.304688-7.300781-16.304688-16.304687v-45.113282h-40.761719v43.480469c0 3.929687-2.25 8.695313-5.734374 12.140625l-3.914063 3.875 17 40.457031-.132813.269531 49.847657 32.609376zm0 0" fill="url(#linear8)"/><path d="m272.835938 249.695312h-49.851563l-32.613281 56.417969 32.613281 56.414063h73.371094v-32.609375c0-21.460938-4.757813-42.046875-14.140625-61.179688zm0 0" fill="url(#linear9)"/><path d="m173.132812 249.695312-9.382812 19.039063c-9.382812 19.136719-14.140625 39.71875-14.140625 61.179687v32.613282h73.371094v-112.832032zm0 0" fill="url(#linear10)"/></svg>